<svg width="107" height="17" viewBox="0 0 107 17" fill="none" xmlns="http://www.w3.org/2000/svg">
<path d="M8.22363 0.893066C8.59863 0.143066 9.66113 0.174316 10.0049 0.893066L12.0674 5.04932L16.6299 5.70557C17.4424 5.83057 17.7549 6.83057 17.1611 7.42432L13.8799 10.6431L14.6611 15.1743C14.7861 15.9868 13.9111 16.6118 13.1924 16.2368L9.12988 14.0806L5.03613 16.2368C4.31738 16.6118 3.44238 15.9868 3.56738 15.1743L4.34863 10.6431L1.06738 7.42432C0.473633 6.83057 0.786133 5.83057 1.59863 5.70557L6.19238 5.04932L8.22363 0.893066Z" fill="#FFA200"/>
<path d="M30.1836 0.893066C30.5586 0.143066 31.6211 0.174316 31.9648 0.893066L34.0273 5.04932L38.5898 5.70557C39.4023 5.83057 39.7148 6.83057 39.1211 7.42432L35.8398 10.6431L36.6211 15.1743C36.7461 15.9868 35.8711 16.6118 35.1523 16.2368L31.0898 14.0806L26.9961 16.2368C26.2773 16.6118 25.4023 15.9868 25.5273 15.1743L26.3086 10.6431L23.0273 7.42432C22.4336 6.83057 22.7461 5.83057 23.5586 5.70557L28.1523 5.04932L30.1836 0.893066Z" fill="#FFA200"/>
<path d="M52.1533 0.893066C52.5283 0.143066 53.5908 0.174316 53.9346 0.893066L55.9971 5.04932L60.5596 5.70557C61.3721 5.83057 61.6846 6.83057 61.0908 7.42432L57.8096 10.6431L58.5908 15.1743C58.7158 15.9868 57.8408 16.6118 57.1221 16.2368L53.0596 14.0806L48.9658 16.2368C48.2471 16.6118 47.3721 15.9868 47.4971 15.1743L48.2783 10.6431L44.9971 7.42432C44.4033 6.83057 44.7158 5.83057 45.5283 5.70557L50.1221 5.04932L52.1533 0.893066Z" fill="#FFA200"/>
<path d="M74.124 0.893066C74.499 0.143066 75.5615 0.174316 75.9053 0.893066L77.9678 5.04932L82.5303 5.70557C83.3428 5.83057 83.6553 6.83057 83.0615 7.42432L79.7803 10.6431L80.5615 15.1743C80.6865 15.9868 79.8115 16.6118 79.0928 16.2368L75.0303 14.0806L70.9365 16.2368C70.2178 16.6118 69.3428 15.9868 69.4678 15.1743L70.249 10.6431L66.9678 7.42432C66.374 6.83057 66.6865 5.83057 67.499 5.70557L72.0928 5.04932L74.124 0.893066Z" fill="#FFA200"/>
<path d="M96.0938 0.893066C96.4688 0.143066 97.5312 0.174316 97.875 0.893066L99.9375 5.04932L104.5 5.70557C105.312 5.83057 105.625 6.83057 105.031 7.42432L101.75 10.6431L102.531 15.1743C102.656 15.9868 101.781 16.6118 101.062 16.2368L97 14.0806L92.9062 16.2368C92.1875 16.6118 91.3125 15.9868 91.4375 15.1743L92.2188 10.6431L88.9375 7.42432C88.3438 6.83057 88.6562 5.83057 89.4688 5.70557L94.0625 5.04932L96.0938 0.893066Z" fill="#FFA200"/>
</svg>
