<svg width="38" height="36" viewBox="0 0 38 36" fill="none" xmlns="http://www.w3.org/2000/svg">
<path d="M0 19.0899L4.7573 15.6541C2.76425 24.0256 8.29594 32.7132 16.3863 35.0958C19.8757 36.1234 23.5478 35.8385 26.958 34.6822C29.4064 33.8521 32.0198 32.2898 33.5654 30.1903C30.3431 30.9356 27.9066 31.7285 24.5794 30.92C17.5658 29.2156 12.8537 20.798 16.0754 14.0683C18.5299 8.94127 24.4671 5.64684 30.1296 6.48333C31.3591 6.6649 32.4331 7.25454 33.5654 7.72525C27.8289 -0.413164 14.3985 -1.25019 7.13595 5.13094C2.65959 9.06416 1.36217 13.5609 0 19.0899Z" fill="#050505"/>
<path d="M27.2221 4.55363C24.6849 2.86928 20.3629 2.44298 17.4432 3.21207C16.4695 3.4687 13.553 4.48967 14.5484 6.00381C15.2223 7.02901 17.0092 6.55037 17.9718 6.38149C21.1539 5.82277 23.9417 4.55389 27.2221 4.55363Z" fill="white"/>
<path d="M34.3583 8.78247C34.1852 12.7546 31.9646 16.026 28.8081 18.2971C30.3918 18.5558 32.0275 16.7116 33.3011 15.9184C33.3106 17.0623 33.5942 18.2178 33.4861 19.3542C33.0345 24.1031 30.3944 28.307 25.9009 30.1903C29.5468 31.7203 34.5166 28.8366 36.2623 25.6973C38.9536 20.8573 38.6436 12.7384 34.3583 8.78247Z" fill="#050505"/>
<path d="M27.2221 4.55363C24.6849 2.86928 20.3629 2.44298 17.4432 3.21207C16.4695 3.4687 13.553 4.48967 14.5484 6.00381C15.2223 7.02901 17.0092 6.55037 17.9718 6.38149C21.1539 5.82277 23.9417 4.55389 27.2221 4.55363Z" fill="#E80000"/>
</svg>
